<mxfile host="app.diagrams.net" modified="2021-05-05T04:07:48.570Z" agent="5.0 (Macintosh; Intel Mac OS X 10_15_7) AppleWebKit/605.1.15 (KHTML, like Gecko) Version/14.1 Safari/605.1.15" etag="lpbNEL8RM1F1IHG7swbV" version="14.6.10" type="github">
  <diagram id="qKKtWXbzyv0KI4i2XfAi" name="Page-1">
    <mxGraphModel dx="946" dy="725" grid="1" gridSize="10" guides="1" tooltips="1" connect="1" arrows="1" fold="1" page="1" pageScale="1" pageWidth="850" pageHeight="1100" math="0" shadow="0">
      <root>
        <mxCell id="0" />
        <mxCell id="1" parent="0" />
        <mxCell id="0U-8j9eXIvIi5SXDUM02-1" value="Region" style="points=[[0,0],[0.25,0],[0.5,0],[0.75,0],[1,0],[1,0.25],[1,0.5],[1,0.75],[1,1],[0.75,1],[0.5,1],[0.25,1],[0,1],[0,0.75],[0,0.5],[0,0.25]];outlineConnect=0;gradientColor=none;html=1;whiteSpace=wrap;fontSize=12;fontStyle=0;shape=mxgraph.aws4.group;grIcon=mxgraph.aws4.group_region;fillColor=none;verticalAlign=top;align=left;spacingLeft=30;fontColor=#147EBA;dashed=1;strokeColor=#0000CC;" parent="1" vertex="1">
          <mxGeometry x="90" y="10" width="850" height="910" as="geometry" />
        </mxCell>
        <mxCell id="0U-8j9eXIvIi5SXDUM02-2" value="VPC" style="points=[[0,0],[0.25,0],[0.5,0],[0.75,0],[1,0],[1,0.25],[1,0.5],[1,0.75],[1,1],[0.75,1],[0.5,1],[0.25,1],[0,1],[0,0.75],[0,0.5],[0,0.25]];outlineConnect=0;gradientColor=none;html=1;whiteSpace=wrap;fontSize=12;fontStyle=0;shape=mxgraph.aws4.group;grIcon=mxgraph.aws4.group_vpc;strokeColor=#248814;fillColor=none;verticalAlign=top;align=left;spacingLeft=30;fontColor=#AAB7B8;dashed=0;" parent="1" vertex="1">
          <mxGeometry x="115" y="60" width="685" height="880" as="geometry" />
        </mxCell>
        <mxCell id="0U-8j9eXIvIi5SXDUM02-4" value="Public subnet" style="points=[[0,0],[0.25,0],[0.5,0],[0.75,0],[1,0],[1,0.25],[1,0.5],[1,0.75],[1,1],[0.75,1],[0.5,1],[0.25,1],[0,1],[0,0.75],[0,0.5],[0,0.25]];outlineConnect=0;gradientColor=none;html=1;whiteSpace=wrap;fontSize=12;fontStyle=0;shape=mxgraph.aws4.group;grIcon=mxgraph.aws4.group_security_group;grStroke=0;strokeColor=#248814;fillColor=#E9F3E6;verticalAlign=top;align=left;spacingLeft=30;fontColor=#248814;dashed=0;shadow=1;" parent="1" vertex="1">
          <mxGeometry x="560" y="400" width="160" height="160" as="geometry" />
        </mxCell>
        <mxCell id="0U-8j9eXIvIi5SXDUM02-11" value="Webserver" style="text;html=1;resizable=0;autosize=1;align=center;verticalAlign=middle;points=[];fillColor=none;strokeColor=none;rounded=0;" parent="1" vertex="1">
          <mxGeometry x="565" y="260" width="70" height="20" as="geometry" />
        </mxCell>
        <mxCell id="0U-8j9eXIvIi5SXDUM02-18" value="Private subnet" style="points=[[0,0],[0.25,0],[0.5,0],[0.75,0],[1,0],[1,0.25],[1,0.5],[1,0.75],[1,1],[0.75,1],[0.5,1],[0.25,1],[0,1],[0,0.75],[0,0.5],[0,0.25]];outlineConnect=0;gradientColor=none;html=1;whiteSpace=wrap;fontSize=12;fontStyle=0;shape=mxgraph.aws4.group;grIcon=mxgraph.aws4.group_security_group;grStroke=0;strokeColor=#147EBA;fillColor=#E6F2F8;verticalAlign=top;align=left;spacingLeft=30;fontColor=#147EBA;dashed=0;shadow=1;" parent="1" vertex="1">
          <mxGeometry x="198.25" y="710" width="171.75" height="165" as="geometry" />
        </mxCell>
        <mxCell id="0U-8j9eXIvIi5SXDUM02-19" value="Private subnet" style="points=[[0,0],[0.25,0],[0.5,0],[0.75,0],[1,0],[1,0.25],[1,0.5],[1,0.75],[1,1],[0.75,1],[0.5,1],[0.25,1],[0,1],[0,0.75],[0,0.5],[0,0.25]];outlineConnect=0;gradientColor=none;html=1;whiteSpace=wrap;fontSize=12;fontStyle=0;shape=mxgraph.aws4.group;grIcon=mxgraph.aws4.group_security_group;grStroke=0;strokeColor=#147EBA;fillColor=#E6F2F8;verticalAlign=top;align=left;spacingLeft=30;fontColor=#147EBA;dashed=0;shadow=1;" parent="1" vertex="1">
          <mxGeometry x="560" y="709" width="160" height="160" as="geometry" />
        </mxCell>
        <mxCell id="0U-8j9eXIvIi5SXDUM02-20" value="Public subnet" style="points=[[0,0],[0.25,0],[0.5,0],[0.75,0],[1,0],[1,0.25],[1,0.5],[1,0.75],[1,1],[0.75,1],[0.5,1],[0.25,1],[0,1],[0,0.75],[0,0.5],[0,0.25]];outlineConnect=0;gradientColor=none;html=1;whiteSpace=wrap;fontSize=12;fontStyle=0;shape=mxgraph.aws4.group;grIcon=mxgraph.aws4.group_security_group;grStroke=0;strokeColor=#248814;fillColor=#E9F3E6;verticalAlign=top;align=left;spacingLeft=30;fontColor=#248814;dashed=0;shadow=1;" parent="1" vertex="1">
          <mxGeometry x="200" y="400" width="179.13" height="170" as="geometry" />
        </mxCell>
        <mxCell id="0U-8j9eXIvIi5SXDUM02-9" value="" style="outlineConnect=0;dashed=0;verticalLabelPosition=bottom;verticalAlign=top;align=center;html=1;shape=mxgraph.aws3.ec2;fillColor=#F58534;gradientColor=none;strokeColor=#0000CC;" parent="1" vertex="1">
          <mxGeometry x="585" y="200" width="50" height="60" as="geometry" />
        </mxCell>
        <mxCell id="0U-8j9eXIvIi5SXDUM02-16" value="Appserver" style="text;html=1;resizable=0;autosize=1;align=center;verticalAlign=middle;points=[];fillColor=none;strokeColor=none;rounded=0;" parent="1" vertex="1">
          <mxGeometry x="263.25" y="260" width="70" height="20" as="geometry" />
        </mxCell>
        <mxCell id="0U-8j9eXIvIi5SXDUM02-40" value="" style="outlineConnect=0;dashed=0;verticalLabelPosition=bottom;verticalAlign=top;align=center;html=1;shape=mxgraph.aws3.ec2;fillColor=#F58534;gradientColor=none;strokeColor=#0000CC;" parent="1" vertex="1">
          <mxGeometry x="270" y="442.5" width="50" height="60" as="geometry" />
        </mxCell>
        <mxCell id="0U-8j9eXIvIi5SXDUM02-43" value="" style="outlineConnect=0;dashed=0;verticalLabelPosition=bottom;verticalAlign=top;align=center;html=1;shape=mxgraph.aws3.ec2;fillColor=#F58534;gradientColor=none;strokeColor=#0000CC;" parent="1" vertex="1">
          <mxGeometry x="615" y="442.5" width="50" height="60" as="geometry" />
        </mxCell>
        <mxCell id="0U-8j9eXIvIi5SXDUM02-28" value="Availability zone a" style="outlineConnect=0;gradientColor=none;html=1;whiteSpace=wrap;fontSize=12;fontStyle=1;shape=mxgraph.aws4.group;grIcon=mxgraph.aws4.group_availability_zone;strokeColor=#545B64;fillColor=none;verticalAlign=top;align=left;spacingLeft=30;fontColor=#545B64;dashed=1;" parent="1" vertex="1">
          <mxGeometry x="158.25" y="170" width="241.75" height="740" as="geometry" />
        </mxCell>
        <mxCell id="0U-8j9eXIvIi5SXDUM02-78" value="" style="edgeStyle=orthogonalEdgeStyle;rounded=0;orthogonalLoop=1;jettySize=auto;html=1;" parent="1" source="0U-8j9eXIvIi5SXDUM02-45" target="0U-8j9eXIvIi5SXDUM02-49" edge="1">
          <mxGeometry relative="1" as="geometry" />
        </mxCell>
        <mxCell id="0U-8j9eXIvIi5SXDUM02-79" value="" style="edgeStyle=orthogonalEdgeStyle;rounded=0;orthogonalLoop=1;jettySize=auto;html=1;" parent="1" source="0U-8j9eXIvIi5SXDUM02-45" target="0U-8j9eXIvIi5SXDUM02-49" edge="1">
          <mxGeometry relative="1" as="geometry" />
        </mxCell>
        <mxCell id="0U-8j9eXIvIi5SXDUM02-45" value="Internet&#xa;gateway" style="outlineConnect=0;fontColor=#232F3E;gradientColor=none;strokeColor=#232F3E;fillColor=#ffffff;dashed=0;verticalLabelPosition=bottom;verticalAlign=top;align=center;html=1;fontSize=12;fontStyle=0;aspect=fixed;shape=mxgraph.aws4.resourceIcon;resIcon=mxgraph.aws4.internet_gateway;" parent="1" vertex="1">
          <mxGeometry x="450" y="34" width="60" height="60" as="geometry" />
        </mxCell>
        <mxCell id="0U-8j9eXIvIi5SXDUM02-46" value="Availability zone b" style="outlineConnect=0;gradientColor=none;html=1;whiteSpace=wrap;fontSize=12;fontStyle=1;shape=mxgraph.aws4.group;grIcon=mxgraph.aws4.group_availability_zone;strokeColor=#545B64;fillColor=none;verticalAlign=top;align=left;spacingLeft=30;fontColor=#545B64;dashed=1;" parent="1" vertex="1">
          <mxGeometry x="540" y="166" width="240" height="750" as="geometry" />
        </mxCell>
        <mxCell id="0U-8j9eXIvIi5SXDUM02-47" value="Public subnet" style="points=[[0,0],[0.25,0],[0.5,0],[0.75,0],[1,0],[1,0.25],[1,0.5],[1,0.75],[1,1],[0.75,1],[0.5,1],[0.25,1],[0,1],[0,0.75],[0,0.5],[0,0.25]];outlineConnect=0;gradientColor=none;html=1;whiteSpace=wrap;fontSize=12;fontStyle=0;shape=mxgraph.aws4.group;grIcon=mxgraph.aws4.group_security_group;grStroke=0;strokeColor=#248814;fillColor=#E9F3E6;verticalAlign=top;align=left;spacingLeft=30;fontColor=#248814;dashed=0;shadow=1;" parent="1" vertex="1">
          <mxGeometry x="194.13" y="203" width="175.87" height="150" as="geometry" />
        </mxCell>
        <mxCell id="0U-8j9eXIvIi5SXDUM02-48" value="Public subnet" style="points=[[0,0],[0.25,0],[0.5,0],[0.75,0],[1,0],[1,0.25],[1,0.5],[1,0.75],[1,1],[0.75,1],[0.5,1],[0.25,1],[0,1],[0,0.75],[0,0.5],[0,0.25]];outlineConnect=0;gradientColor=none;html=1;whiteSpace=wrap;fontSize=12;fontStyle=0;shape=mxgraph.aws4.group;grIcon=mxgraph.aws4.group_security_group;grStroke=0;strokeColor=#248814;fillColor=#E9F3E6;verticalAlign=top;align=left;spacingLeft=30;fontColor=#248814;dashed=0;shadow=1;" parent="1" vertex="1">
          <mxGeometry x="560" y="200" width="160" height="160" as="geometry" />
        </mxCell>
        <mxCell id="0U-8j9eXIvIi5SXDUM02-49" value="" style="outlineConnect=0;dashed=0;verticalLabelPosition=bottom;verticalAlign=top;align=center;html=1;shape=mxgraph.aws3.route_table;fillColor=#F58536;gradientColor=none;strokeColor=#0000CC;" parent="1" vertex="1">
          <mxGeometry x="448" y="143" width="65" height="50" as="geometry" />
        </mxCell>
        <mxCell id="0U-8j9eXIvIi5SXDUM02-50" value="" style="outlineConnect=0;dashed=0;verticalLabelPosition=bottom;verticalAlign=top;align=center;html=1;shape=mxgraph.aws3.elastic_load_balancing;fillColor=#F58534;gradientColor=none;strokeColor=#0000CC;" parent="1" vertex="1">
          <mxGeometry x="443.75" y="220" width="62.5" height="60" as="geometry" />
        </mxCell>
        <mxCell id="0U-8j9eXIvIi5SXDUM02-51" value="" style="outlineConnect=0;dashed=0;verticalLabelPosition=bottom;verticalAlign=top;align=center;html=1;shape=mxgraph.aws3.ec2;fillColor=#F58534;gradientColor=none;strokeColor=#0000CC;" parent="1" vertex="1">
          <mxGeometry x="263" y="239" width="67" height="61" as="geometry" />
        </mxCell>
        <mxCell id="0U-8j9eXIvIi5SXDUM02-52" value="" style="outlineConnect=0;dashed=0;verticalLabelPosition=bottom;verticalAlign=top;align=center;html=1;shape=mxgraph.aws3.ec2;fillColor=#F58534;gradientColor=none;strokeColor=#0000CC;" parent="1" vertex="1">
          <mxGeometry x="620" y="250" width="70" height="60" as="geometry" />
        </mxCell>
        <mxCell id="0U-8j9eXIvIi5SXDUM02-53" value="" style="outlineConnect=0;fontColor=#232F3E;gradientColor=none;fillColor=#3334B9;strokeColor=none;dashed=0;verticalLabelPosition=bottom;verticalAlign=top;align=center;html=1;fontSize=12;fontStyle=0;aspect=fixed;pointerEvents=1;shape=mxgraph.aws4.rds_sql_server_instance;" parent="1" vertex="1">
          <mxGeometry x="259.12" y="750" width="78" height="78" as="geometry" />
        </mxCell>
        <mxCell id="0U-8j9eXIvIi5SXDUM02-56" value="" style="outlineConnect=0;fontColor=#232F3E;gradientColor=none;fillColor=#3334B9;strokeColor=none;dashed=0;verticalLabelPosition=bottom;verticalAlign=top;align=center;html=1;fontSize=12;fontStyle=0;aspect=fixed;pointerEvents=1;shape=mxgraph.aws4.rds_sql_server_instance_alt;" parent="1" vertex="1">
          <mxGeometry x="616" y="753" width="78" height="78" as="geometry" />
        </mxCell>
        <mxCell id="0U-8j9eXIvIi5SXDUM02-58" value="" style="outlineConnect=0;dashed=0;verticalLabelPosition=bottom;verticalAlign=top;align=center;html=1;shape=mxgraph.aws3.route_table;fillColor=#F58536;gradientColor=none;strokeColor=#0000CC;" parent="1" vertex="1">
          <mxGeometry x="435.5" y="640" width="75" height="70" as="geometry" />
        </mxCell>
        <mxCell id="0U-8j9eXIvIi5SXDUM02-59" value="AppServer" style="text;html=1;resizable=0;autosize=1;align=center;verticalAlign=middle;points=[];fillColor=none;strokeColor=none;rounded=0;" parent="1" vertex="1">
          <mxGeometry x="605" y="510" width="70" height="20" as="geometry" />
        </mxCell>
        <mxCell id="0U-8j9eXIvIi5SXDUM02-61" value="" style="outlineConnect=0;dashed=0;verticalLabelPosition=bottom;verticalAlign=top;align=center;html=1;shape=mxgraph.aws3.vpc_nat_gateway;fillColor=#F58536;gradientColor=none;strokeColor=#0000CC;" parent="1" vertex="1">
          <mxGeometry x="445" y="520" width="55" height="50" as="geometry" />
        </mxCell>
        <mxCell id="0U-8j9eXIvIi5SXDUM02-63" value="WebServer" style="text;html=1;resizable=0;autosize=1;align=center;verticalAlign=middle;points=[];fillColor=none;strokeColor=none;rounded=0;" parent="1" vertex="1">
          <mxGeometry x="253.25" y="310" width="80" height="20" as="geometry" />
        </mxCell>
        <mxCell id="0U-8j9eXIvIi5SXDUM02-64" value="Webserver" style="text;html=1;resizable=0;autosize=1;align=center;verticalAlign=middle;points=[];fillColor=none;strokeColor=none;rounded=0;" parent="1" vertex="1">
          <mxGeometry x="620" y="320" width="70" height="20" as="geometry" />
        </mxCell>
        <mxCell id="0U-8j9eXIvIi5SXDUM02-65" value="AppServer" style="text;html=1;resizable=0;autosize=1;align=center;verticalAlign=middle;points=[];fillColor=none;strokeColor=none;rounded=0;" parent="1" vertex="1">
          <mxGeometry x="254.57" y="510" width="70" height="20" as="geometry" />
        </mxCell>
        <mxCell id="0U-8j9eXIvIi5SXDUM02-66" value="Dadabase Master" style="text;html=1;resizable=0;autosize=1;align=center;verticalAlign=middle;points=[];fillColor=none;strokeColor=none;rounded=0;" parent="1" vertex="1">
          <mxGeometry x="234.57" y="840" width="110" height="20" as="geometry" />
        </mxCell>
        <mxCell id="0U-8j9eXIvIi5SXDUM02-67" value="Standby DB" style="text;html=1;resizable=0;autosize=1;align=center;verticalAlign=middle;points=[];fillColor=none;strokeColor=none;rounded=0;" parent="1" vertex="1">
          <mxGeometry x="610" y="840" width="80" height="20" as="geometry" />
        </mxCell>
        <mxCell id="0U-8j9eXIvIi5SXDUM02-70" value="" style="verticalLabelPosition=bottom;html=1;verticalAlign=top;strokeWidth=1;align=center;outlineConnect=0;dashed=0;outlineConnect=0;shape=mxgraph.aws3d.s3Bucket;fillColor=#4286c5;strokeColor=#57A2D8;aspect=fixed;" parent="1" vertex="1">
          <mxGeometry x="833.19" y="550" width="96.39" height="100" as="geometry" />
        </mxCell>
        <mxCell id="0U-8j9eXIvIi5SXDUM02-71" value="S3 Bucket" style="text;html=1;resizable=0;autosize=1;align=center;verticalAlign=middle;points=[];fillColor=none;strokeColor=none;rounded=0;" parent="1" vertex="1">
          <mxGeometry x="850" y="680" width="70" height="20" as="geometry" />
        </mxCell>
        <mxCell id="0U-8j9eXIvIi5SXDUM02-72" value="" style="outlineConnect=0;fontColor=#232F3E;gradientColor=none;fillColor=#C7131F;strokeColor=none;dashed=0;verticalLabelPosition=bottom;verticalAlign=top;align=center;html=1;fontSize=12;fontStyle=0;aspect=fixed;shape=mxgraph.aws4.endpoint;" parent="1" vertex="1">
          <mxGeometry x="833" y="770" width="40" height="40" as="geometry" />
        </mxCell>
        <mxCell id="0U-8j9eXIvIi5SXDUM02-73" value="Endpoint" style="text;html=1;resizable=0;autosize=1;align=center;verticalAlign=middle;points=[];fillColor=none;strokeColor=none;rounded=0;" parent="1" vertex="1">
          <mxGeometry x="823" y="820" width="60" height="20" as="geometry" />
        </mxCell>
        <mxCell id="0U-8j9eXIvIi5SXDUM02-74" value="Route Table" style="text;html=1;resizable=0;autosize=1;align=center;verticalAlign=middle;points=[];fillColor=none;strokeColor=none;rounded=0;shadow=1;" parent="1" vertex="1">
          <mxGeometry x="433" y="709" width="80" height="20" as="geometry" />
        </mxCell>
        <mxCell id="0U-8j9eXIvIi5SXDUM02-75" value="NAT Gateway" style="text;html=1;resizable=0;autosize=1;align=center;verticalAlign=middle;points=[];fillColor=none;strokeColor=none;rounded=0;shadow=1;" parent="1" vertex="1">
          <mxGeometry x="431" y="570" width="90" height="20" as="geometry" />
        </mxCell>
        <mxCell id="0U-8j9eXIvIi5SXDUM02-76" value="Elastic Load &amp;nbsp;Balancer" style="text;html=1;resizable=0;autosize=1;align=center;verticalAlign=middle;points=[];fillColor=none;strokeColor=none;rounded=0;shadow=1;" parent="1" vertex="1">
          <mxGeometry x="407.5" y="280" width="130" height="20" as="geometry" />
        </mxCell>
        <mxCell id="0U-8j9eXIvIi5SXDUM02-81" value="" style="outlineConnect=0;dashed=0;verticalLabelPosition=bottom;verticalAlign=top;align=center;html=1;shape=mxgraph.aws3.elastic_load_balancing;fillColor=#F58534;gradientColor=none;strokeColor=#0000CC;" parent="1" vertex="1">
          <mxGeometry x="441.25" y="410" width="62.5" height="60" as="geometry" />
        </mxCell>
        <mxCell id="0U-8j9eXIvIi5SXDUM02-82" value="Elastic Load &amp;nbsp;Balancer" style="text;html=1;resizable=0;autosize=1;align=center;verticalAlign=middle;points=[];fillColor=none;strokeColor=none;rounded=0;shadow=1;" parent="1" vertex="1">
          <mxGeometry x="407.5" y="470" width="130" height="20" as="geometry" />
        </mxCell>
        <mxCell id="0U-8j9eXIvIi5SXDUM02-84" value="" style="outlineConnect=0;dashed=0;verticalLabelPosition=bottom;verticalAlign=top;align=center;html=1;shape=mxgraph.aws3.auto_scaling;fillColor=#F58534;gradientColor=none;shadow=1;strokeColor=#0000CC;" parent="1" vertex="1">
          <mxGeometry x="448" y="320" width="56" height="56" as="geometry" />
        </mxCell>
        <mxCell id="0U-8j9eXIvIi5SXDUM02-85" value="AutoScaling" style="text;html=1;resizable=0;autosize=1;align=center;verticalAlign=middle;points=[];fillColor=none;strokeColor=none;rounded=0;shadow=1;" parent="1" vertex="1">
          <mxGeometry x="440" y="376" width="80" height="20" as="geometry" />
        </mxCell>
      </root>
    </mxGraphModel>
  </diagram>
</mxfile>
